# xmcd
#
# Track frame offsets:
#	150
#	21977
#	39407
#	56899
#	72163
#	87153
#	106275
#	121116
#	136209
#	153901
#	171577
#
# Disc length: 2533 seconds
#
# Revision: 0
# Processed by: cddbd v1.5.2PL0 Copyright (c) Steve Scherf et al.
# Submitted via: EasyCDDAExtractor 9.1.3.1
#
DISCID=9009e30b
DTITLE=Craig Morgan - Greatest Hits
DYEAR=2008
DGENRE=Country
TTITLE0=Almost Home
TTITLE1=Redneck Yacht Club
TTITLE2=International Harvester
TTITLE3=That's What I Love About Sunday
TTITLE4=Tough
TTITLE5=Little Bit Of Life
TTITLE6=I Love It
TTITLE7=I'm Country
TTITLE8=Every Friday Afternoon
TTITLE9=I Got You
TTITLE10=I Am
EXTD=
EXTT0=
EXTT1=
EXTT2=
EXTT3=
EXTT4=
EXTT5=
EXTT6=
EXTT7=
EXTT8=
EXTT9=
EXTT10=
PLAYORDER=
